<?xml version="1.0" encoding="UTF-8"?>
<svg id="Layer_1" xmlns="http://www.w3.org/2000/svg" viewBox="0 0 668.36 856.89">
  <defs>
    <style>
      .cls-1, .cls-2 {
        fill: #fff;
      }

      .cls-3 {
        fill: none;
        stroke: #fff;
        stroke-miterlimit: 10;
        stroke-width: 23px;
      }

      .cls-2 {
        font-family: CascadiaMono-Roman, 'Cascadia Mono';
        font-size: 114px;
        font-variation-settings: 'wght' 400;
      }
    </style>
  </defs>
  <path class="cls-3" d="M334.23,314.69c-.06,1.7-.09,3.39-.09,5.08"/>
  <path class="cls-3" d="M174.79,164.58c32.09-23.97,72.03-39.36,117.33-39.36,103.4,0,201.45,109.53,201.45,194.55"/>
  <g>
    <path class="cls-1" d="M581.03,288.97c-7.03-26.26-16.9-51.97-32.59-74.35-32.07-45.71-76.04-82.35-128.32-102.73-12.5-4.87-25.48-9.16-38.6-12.03-2.61-.57-11.45-.61-12.75-3.12-1.96-3.76,2.16-4.84,4.27-7.45,12.25-15.19,18.88-38.39,10.23-56.86-18.29-39.06-79.12-44.52-101.63-7.17-9.95,16.51-9.98,42.52,1.06,58.62,8.31,12.12,5.45,12.88-8.91,16.51-11.81,2.98-23.14,7.14-34.6,11.26-43.83,15.76-84.73,47.35-111.5,85.45-15.12,21.51-26.72,44.11-35.79,68.82-4.58,12.49-6.68,17.22-9.87,30.8-1.35,5.73-2.04,12.23-3.23,17.99-.82,3.92-4.04,23.47.01,23.47h482.79c11.98,0,25.84.04,25.84-3.42,0-12.51-3.26-33.98-6.41-45.79ZM331.68,161.04c-11.39,3.45-24.62,2.25-36.45,4.81-41.61,8.98-78.34,32.36-106.64,64.06-16.5,18.49-28.31,39.04-38.25,61.58-3.83,8.69-6.16,20.39-16.71,22.69-1.9.41-3.56.58-5.02.51-6.21-.29-8.74-4.73-9.68-11.68-.05-42.77,34.68-85.26,62.83-114.06,8.89-9.1,19.08-17.27,30.11-24.37,24.08-15.5,52.2-25.89,79.7-29.68,10.61-1.46,25.02-2.91,34.13-.54,7.42,1.93,9.6,3.41,15.53,8.65,8.51,7.54-2.95,16.04-9.55,18.03ZM306.99,52.2c-.94-11.4,13.24-21.4,23.26-21.37,12.92.05,23.86,7.76,23.62,21.16-.55,31.62-47.07,34.06-46.88.21ZM396.98,174.3c-4.67.11-17.25-6.06-20.29-9.76-4.35-5.29-2.21-12.31,5.86-12.22,3.11.03,9.04,4.05,11.96,4.97,3.5,1.1,8.22.73,10.91,3.81,5.98,6.85-1.29,13.36-8.44,13.2Z"/>
    <path class="cls-1" d="M.33,377.65c-.5-9.26,3.38-18.97,12.4-22.66,8.8-3.59,19.76-.19,21.65,9.87,1.52,8.11-2.08,18.37,10.37,10.5,9.91-6.26,15.03-7.17,27.31-6.98,50.86.77,101.83-.7,152.73-.34,105.65.75,211.24-1.34,316.8-1.2,13.56.02,27.12-.2,40.68-.21,10.14,0,24.06-2.79,32.69,3.72,7.96,6,10.78,8.02,15.27-2.87,4.01-9.74,9.95-16.19,21.95-14.83,21.96,2.5,18.18,34.3,8.45,46.83-13.45,17.33-32.06,19.58-52.4,18.52-25.66-1.34-52.07,0-77.82.08-24.61.08-49.44.33-74-.39-49.3-1.44-99.33-1.05-148.63.24-58.14,1.51-116.53.2-174.7.18-28.31,0-56.62.21-84.92.16-23.68-.04-51.53-11.63-47.83-40.61Z"/>
    <path class="cls-1" d="M205.88,444.98c15.83,0,16.39.14,23.09,6.69,10.91,10.66,16.83,22.87,31.56,29.51,6.44,2.9,31.55,10.81,34.64.02,2.58-9.02-19.3-36.22-13.68-36.22h30.55c7.64,0,9.31,12.05,14.5,15.84,6.26,4.57,8.71-4.61,10.65-9.15,2.85-6.69,3.13-6.69,10.13-6.69h26.43c15.66,0-5.21,26.78-9.62,32.23-4.43,5.48-5.25,7.83,2.87,9.54,6.04,1.27,14.58-.82,20.6-2.26,13.65-3.26,25.01-10.4,34.79-20.31,4.58-4.64,10.91-19.2,17.49-19.2h34.68c9.24,0,2.17,11.84-.98,17.34-15.65,27.25-38.36,48.93-68.55,58.97-14.36,4.78-28.59,7.27-43.63,4.67-8.39-1.45-16.36-4.33-24.41-6.98-8.9-2.93-12.8-1.16-21.52,1.49-33.3,10.12-69.16,4.58-96.07-18.09-12.9-10.87-21.76-23.01-29.82-37.82-10.31-18.92-8.13-19.58,16.32-19.58Z"/>
    <path class="cls-1" d="M491.23,483.32c8.97,0,22.04,2.13,30.6-.73,8.71-2.91,12.07-12.06,16.28-19.35,5.07-8.78,8.21-18.19,19.16-18.19,5.97,0,23.56-.08,30.14-.08,14.97,0-15.52,43.8-20.83,52.28-5.87,9.4-13.97,17.03-14.74,28.48-.79,11.87,3.84,24.71-.22,36.47-2.43,7.05-7.53,11.52-15.45,9.72-10.34-2.35-11.86-18.51-21.41-20.5-6.74-1.4-20.22,12.97-25.64,16.57-9.57,6.34-19.65,11.91-29.97,16.94-8.95,4.36-53.93,27.49-54.3,8.97-.09-4.22,3.73-7.53,2.73-12.36-.96-4.63-4.87-5.32-6.73-8.95-5.02-9.83,11.55-11.69,19.33-14.83,12.13-4.9,24.05-10.36,35.44-16.84,7.15-4.07,24.01-11.99,26.78-20.71,3-9.42-12.37-14.09-11.35-25.46.95-10.65,10.46-13.37,20.18-11.44Z"/>
    <path class="cls-1" d="M101.97,445c24.66,0,21.69,27.01,32.32,36.35,13.78,12.11,49.42-10.77,58.23,7.73,4.69,9.86-3.44,16.92-8.33,23.85-6.49,9.21.05,12.81,7.88,19.05,16,12.74,41.14,28.37,62.08,29.16,7.34.28,18.94-.39,12.91,10.78-1.99,3.68-6.18,5.31-7.9,9.51-1.88,4.59.53,10-1.05,14.16-5.47,14.31-48.83-9.01-57.77-13.51-10.04-5.04-19.88-10.64-29.09-17.09-8.03-5.63-16.72-18.07-26.91-11.67-7.51,4.72-10.26,15.04-19.78,16.77-13.43,2.44-11.97-8.69-11.76-18.08.27-11.7,2.95-30.17-2.53-40.6-5.25-9.99-14.56-18-20.05-28.41-3.84-7.26-14.94-22.87-14.94-31.48,0-7.6,19.79-6.52,26.69-6.52Z"/>
    <path class="cls-1" d="M332.86,643.62c-9.7,0-21.22-13.48-28.28-20.12-8.51-8-19.72-19.71-19.72-30.61s11.48-23.14,19.6-31.13c9.02-8.87,18.53-17.91,28.33-17.91s18.03,8.85,26.78,17.59c7.05,7.05,22.1,20.12,22.31,31.45.2,10.69-12.71,20.64-22.15,30.51-8.63,9.02-17.17,20.21-26.87,20.21Z"/>
    <path class="cls-1" d="M520.75,100.82c.47,11.28-10.06,18.85-20.39,13.92-5.22-2.49-9.09-8.11-13.58-11.65-4.89-3.85-10.31-6.63-15.77-9.59-11.49-6.21-23.02-12.5-35.36-16.87-9.56-3.38-22.36-5.09-23.13-17.64-1.61-26.27,43.61-2.2,53.81,2.45,11.95,5.45,23.03,12.7,34.19,19.59,7.75,4.78,21.11,8.61,20.23,19.79Z"/>
    <path class="cls-1" d="M141.04,104.91c.86-17.24,36.25-33.79,49.52-40.82,11.17-5.92,23.63-11.37,35.9-14.46,10.65-2.68,25.81-1.19,16.61,13.58-5.84,9.37-16.15,12.62-25.85,16.4-11.88,4.63-23.35,10.07-34.1,16.96-8.33,5.34-42.34,36.23-42.08,8.34Z"/>
    <path class="cls-1" d="M128.87,134.95c.59,12.8-12.59,23.4-21.15,31.36-8.54,7.95-23.55,10.19-22.33-5.6.88-11.33,10.09-22.07,18.72-28.56,7.45-5.6,24.39-13.65,24.76,2.79Z"/>
    <path class="cls-1" d="M562.14,169.79c-11.74-.03-12.23-11.89-18.97-18.98-5.95-6.24-16.37-16.9-3.54-23.54,10.21-5.29,23.41,8.5,29.59,15.57,6.88,7.89,9.77,28.53-7.07,26.95Z"/>
    <path class="cls-1" d="M632.72,252.88c1.88,21.95-36.69,24.58-31.91.92,3.26-16.17,31.85-20.7,31.91-.92Z"/>
    <path class="cls-1" d="M607.82,199.87c-.15,17.71-29.32,25.61-28.06,2.67.91-16.63,28.21-20.53,28.06-2.67Z"/>
    <path class="cls-1" d="M65.88,217.36c-17.81,1.43-11.89-30.8,7.68-26.33,6.97,1.59,9.98,7.08,8.69,14.33-1.5,8.42-8.41,11.36-16.37,12Z"/>
    <path class="cls-1" d="M633.34,297.24c15.07-2.55,10.44,30.59-8.87,25.77-16.5-4.12-4.21-25.81,8.87-25.77Z"/>
    <path class="cls-1" d="M47.13,309.61c-.52,13.08-23.41,21.77-25.48,5.57-1.98-15.49,25.39-22.49,25.48-5.57Z"/>
    <path class="cls-1" d="M48.03,245.32c17.18-.17,13.04,21.8-1.27,23.56-18.44,2.27-14.17-25.78,1.27-23.56Z"/>
  </g>
  <text class="cls-2" transform="translate(33.6 807.3)"><tspan x="0" y="0">ServeSync</tspan></text>
</svg>